<svg id="visual" viewBox="0 0 900 600" width="900" height="600" xmlns="http://www.w3.org/2000/svg" xmlns:xlink="http://www.w3.org/1999/xlink" version="1.1"><rect x="0" y="0" width="900" height="600" fill="#3944a1"></rect><defs><linearGradient id="grad1_0" x1="33.3%" y1="0%" x2="100%" y2="100%"><stop offset="20%" stop-color="#3944a1" stop-opacity="1"></stop><stop offset="80%" stop-color="#3944a1" stop-opacity="1"></stop></linearGradient></defs><defs><linearGradient id="grad2_0" x1="0%" y1="0%" x2="66.7%" y2="100%"><stop offset="20%" stop-color="#3944a1" stop-opacity="1"></stop><stop offset="80%" stop-color="#3944a1" stop-opacity="1"></stop></linearGradient></defs><g transform="translate(900, 0)"><path d="M0 486.7C-65.6 472.7 -131.3 458.6 -174.9 422.2C-218.5 385.8 -240.1 327.2 -288.5 288.5C-336.9 249.8 -412.2 231 -449.7 186.3C-487.2 141.5 -487 70.8 -486.7 0L0 0Z" fill="#65b3d8"></path></g><g transform="translate(0, 600)"><path d="M0 -486.7C67.8 -484.2 135.5 -481.7 186.3 -449.7C237 -417.7 270.7 -356.4 306.9 -306.9C343 -257.4 381.7 -219.8 412.1 -170.7C442.4 -121.5 464.6 -60.8 486.7 0L0 0Z" fill="#65b3d8"></path></g></svg>