<svg xmlns="http://www.w3.org/2000/svg" width="162" height="116" viewBox="0 0 162 116" fill="none">
  <g clip-path="url(#clip0_1_20)">
    <path d="M31.7473 19.4788C34.8704 19.4788 37.4022 16.9554 37.4022 13.8427C37.4022 10.7299 34.8704 8.20654 31.7473 8.20654C28.6243 8.20654 26.0925 10.7299 26.0925 13.8427C26.0925 16.9554 28.6243 19.4788 31.7473 19.4788Z" fill="#2F2E41"/>
    <path d="M14.5244 81.6969L17.9986 69.688L19.1813 70.0563C19.1813 70.0563 17.7769 79.0446 15.5593 81.3285L14.5244 81.6969Z" fill="#2F2E41"/>
    <path d="M27.756 17.2317C27.756 17.2317 28.1995 21.9468 27.1646 23.273C26.1297 24.5991 27.8299 27.1777 27.8299 27.1777L30.9345 30.8615L35.5175 28.7986L36.1827 24.9675L35.7392 22.3152C35.7392 22.3152 34.1869 20.768 34.8522 17.9684C35.5175 15.1688 27.756 17.2317 27.756 17.2317Z" fill="#FFB9B9"/>
    <path opacity="0.1" d="M27.756 17.2317C27.756 17.2317 28.1995 21.9468 27.1646 23.273C26.1297 24.5991 27.8299 27.1777 27.8299 27.1777L30.9345 30.8615L35.5175 28.7986L36.1827 24.9675L35.7392 22.3152C35.7392 22.3152 34.1869 20.768 34.8522 17.9684C35.5175 15.1688 27.756 17.2317 27.756 17.2317Z" fill="black"/>
    <path d="M30.417 105.421V108.441L34.4825 109.252L34.1129 104.242L30.417 105.421Z" fill="#FFB9B9"/>
    <path d="M42.6137 104.242L41.7266 108.441L43.5007 109.694L46.6054 107.41L46.2357 103.8L42.6137 104.242Z" fill="#FFB9B9"/>
    <path d="M34.852 108.883C34.852 108.883 33.2997 106.268 30.4168 107.907C30.4168 107.907 29.8994 110.799 29.382 111.02C28.8645 111.241 25.9817 115.44 29.382 115.808C32.7822 116.177 34.4824 115.072 34.4824 115.072C34.4824 115.072 33.8171 115.642 34.852 115.347C35.8868 115.053 35.4433 113.432 35.4433 113.432L34.852 108.883Z" fill="#2F2E41"/>
    <path d="M44.979 107.115C44.979 107.115 42.6875 108.736 42.3179 107.999C41.9483 107.262 41.3569 107.336 41.3569 107.336C41.3569 107.336 39.2872 115.112 40.6177 115.481C41.4745 115.691 42.3744 115.645 43.2049 115.348C43.2049 115.348 44.979 114.109 44.979 115.067C44.979 116.025 49.9316 115.956 52.0013 115.882C54.071 115.809 52.9622 114.261 52.9622 114.261L50.2272 111.609L47.1226 107.115C47.1226 107.115 45.7182 105.862 44.979 107.115Z" fill="#2F2E41"/>
    <path d="M23.1729 57.8268L26.2775 87.5177C26.2775 87.5177 27.9776 105.642 28.2733 105.936C28.5689 106.231 30.4908 107.189 34.7042 105.936L33.7433 82.2131L35.5173 67.4782L39.5829 77.6453C39.5829 77.6453 40.5438 104.979 41.2091 104.979C41.8744 104.979 45.9399 106.305 46.9009 104.684C47.8618 103.063 47.714 85.6022 47.714 85.6022C47.714 85.6022 47.2705 58.0479 44.018 57.1638C40.7656 56.2797 23.1729 57.8268 23.1729 57.8268Z" fill="#2F2E41"/>
    <path d="M31.7474 19.9581C34.5643 19.9581 36.8478 17.6821 36.8478 14.8745C36.8478 12.0669 34.5643 9.79095 31.7474 9.79095C28.9305 9.79095 26.647 12.0669 26.647 14.8745C26.647 17.6821 28.9305 19.9581 31.7474 19.9581Z" fill="#FFB9B9"/>
    <path d="M32.0431 29.0199C32.0431 29.0199 31.5257 25.8519 31.5257 25.2625C31.5257 24.6731 29.2342 24.3047 29.2342 24.3047C29.2342 24.3047 27.4601 22.3155 27.0905 22.6102C26.7209 22.9049 21.1031 26.6623 20.2161 27.178C19.329 27.6937 18.3681 29.904 18.442 30.0513C18.5159 30.1987 23.0989 39.7764 23.0989 39.7764C23.0989 39.7764 25.0947 45.6703 23.6903 48.7647C22.2858 51.859 20.5117 57.974 23.0989 59.2265C25.6861 60.4789 38.2523 63.2049 40.5438 60.8473C42.8353 58.4897 44.4615 57.8267 45.0529 57.8267C45.6442 57.8267 42.6135 47.5859 43.2788 46.6281C43.9441 45.6703 42.9831 39.7027 42.9831 39.7027L46.3834 30.1987C46.3834 30.1987 46.0877 24.8941 39.3611 23.7153L35.337 21.7706L32.0431 29.0199Z" fill="#575A89"/>
    <path d="M18.2202 59.1527C18.2202 59.1527 17.8507 62.6891 17.8507 63.7205C17.8507 64.752 16.0766 70.7933 18.6638 71.53C21.2509 72.2668 21.0292 63.4995 21.0292 63.4995V59.0053L18.2202 59.1527Z" fill="#FFB9B9"/>
    <path d="M48.8967 55.8378C48.8967 55.8378 49.3402 59.2268 49.1184 59.9636C48.8967 60.7003 51.2621 67.11 48.0836 67.4784C44.905 67.8468 45.7181 59.8162 45.7181 59.8162V55.8378L48.8967 55.8378Z" fill="#FFB9B9"/>
    <path d="M17.5549 80.5183L19.6986 69.1724H20.3639C20.829 69.7701 21.1341 70.4758 21.2505 71.2233C21.3668 71.9707 21.2907 72.7354 21.0291 73.4455C20.1421 75.9504 19.4029 80.5183 19.4029 80.5183H17.5549Z" fill="#2F2E41"/>
    <path d="M19.5509 29.167L18.4421 30.0511C18.4421 30.0511 16.9637 53.4796 17.3333 55.2478C17.7029 57.016 16.0028 59.521 17.4812 59.742C18.9595 59.963 20.7336 60.9208 21.5467 60.3314C22.3598 59.742 22.5077 57.6054 22.8033 57.0897C23.099 56.574 23.6164 50.459 23.6164 50.459C23.6164 50.459 25.1687 44.344 24.2078 39.7761C23.2468 35.2083 22.3598 30.5668 22.3598 30.5668L19.5509 29.167Z" fill="#575A89"/>
    <path d="M42.9831 27.3251L46.3834 30.1984L48.9706 45.2281C48.9706 45.2281 50.5968 56.9423 49.3402 57.0897C48.0836 57.237 46.1617 56.8686 45.3485 57.0897C44.5354 57.3107 43.8702 56.7213 43.8702 56.7213C43.8702 56.7213 42.9831 52.0061 42.9831 51.9324C42.9831 51.8588 42.3918 46.4805 42.3918 46.4805L41.6526 40.4392L42.7614 33.8085L42.9831 27.3251Z" fill="#575A89"/>
    <path d="M26.9427 96.8745C26.9427 96.8745 26.4622 98.25 25.7999 100.123C25.4924 100.994 25.1457 101.973 24.7887 102.971C24.5588 103.616 24.3252 104.27 24.0953 104.908C23.7287 105.928 23.3724 106.908 23.0612 107.75C22.6502 108.86 22.3168 109.73 22.1379 110.136C21.3248 111.978 6.46706 109.031 5.28436 108.294C4.10165 107.557 3.80597 105.052 3.65814 101.516C3.6574 101.498 3.65665 101.479 3.65665 101.461C3.63744 100.747 3.82001 99.6837 4.12531 98.4364C4.27758 97.8131 4.4609 97.1441 4.66491 96.4494C4.93842 95.5174 5.24888 94.5405 5.57337 93.568C6.96749 89.3906 8.61072 85.3076 8.61072 85.3076C8.61072 85.3076 11.4936 83.3184 12.5284 81.9922C13.5633 80.6661 19.2551 79.6346 19.2551 79.6346C20.8813 79.7083 24.5773 85.9706 26.0556 87.8862C27.534 89.8017 26.9427 96.8745 26.9427 96.8745Z" fill="#3F3D56"/>
    <path d="M18.6638 85.6755C19.0312 85.6755 19.3291 85.3786 19.3291 85.0124C19.3291 84.6462 19.0312 84.3493 18.6638 84.3493C18.2964 84.3493 17.9985 84.6462 17.9985 85.0124C17.9985 85.3786 18.2964 85.6755 18.6638 85.6755Z" fill="#2F2E41"/>
    <path d="M19.6987 86.1174C19.9028 86.1174 20.0683 85.9525 20.0683 85.7491C20.0683 85.5456 19.9028 85.3807 19.6987 85.3807C19.4946 85.3807 19.3291 85.5456 19.3291 85.7491C19.3291 85.9525 19.4946 86.1174 19.6987 86.1174Z" fill="#2F2E41"/>
    <path d="M25.8 100.123C25.4925 100.993 25.1458 101.973 24.7888 102.971L4.66504 96.4492C4.93854 95.5172 5.24901 94.5403 5.5735 93.5678L25.8 100.123Z" fill="#F2F2F2"/>
    <path d="M24.0955 104.908C23.7289 105.928 23.3726 106.908 23.0614 107.749L3.6569 101.46C3.63768 100.746 3.82026 99.6834 4.12555 98.4361L24.0955 104.908Z" fill="#F2F2F2"/>
    <path d="M18.6638 85.1599C18.6638 85.1599 20.1422 91.6433 19.2552 97.3899C18.3681 103.136 21.4727 108.515 21.4727 108.515" stroke="#2F2E41" stroke-width="3" stroke-miterlimit="10"/>
    <path d="M19.6986 85.6756C19.6986 85.6756 16.8158 96.1374 16.7418 97.6109C16.6679 99.0844 15.4852 109.62 14.0068 110.725" stroke="#2F2E41" stroke-width="3" stroke-miterlimit="10"/>
    <path d="M27.8318 11.7721C27.8318 11.7721 26.6773 8.78024 28.3514 7.80215L28.8132 9.12545C28.8132 9.12545 33.0272 6.59392 34.124 7.16927L33.0849 8.5501C33.0849 8.5501 37.9916 8.5501 38.3379 10.4488L36.6062 10.5063C36.6062 10.5063 38.4534 11.7145 38.5111 13.6707L34.8167 13.9009L36.6062 14.9365C36.6062 14.9365 29.91 15.857 28.2936 13.2104L27.8318 11.7721Z" fill="#2F2E41"/>
    <path d="M26.8318 11.8908C26.8318 11.8908 28.1623 14.543 29.9364 13.88C31.7105 13.2169 29.9364 10.7856 29.9364 10.7856L28.7537 10.1962L26.8318 11.8908Z" fill="#2F2E41"/>
    <path d="M141.568 53.7331L117.441 23.6833C116.345 24.6819 114.996 25.3612 113.539 25.647C108.997 26.5386 104.561 23.4471 103.631 18.742C103.311 17.186 103.423 15.5722 103.955 14.075C104.488 12.5777 105.42 11.2538 106.652 10.2461L98.4256 3.05176e-05L51.5581 39.923L94.7001 93.6561L141.568 53.7331Z" fill="#F2F2F2"/>
    <path d="M111.589 24.2194C115.346 24.2194 118.391 21.1843 118.391 17.4402C118.391 13.6961 115.346 10.6609 111.589 10.6609C107.833 10.6609 104.787 13.6961 104.787 17.4402C104.787 21.1843 107.833 24.2194 111.589 24.2194Z" fill="#F2F2F2"/>
    <path d="M69.0296 47.6472L66.9485 50.0478L73.9599 56.0861L76.041 53.6856L69.0296 47.6472Z" fill="#F9A826"/>
    <path d="M114.102 90.5772L112.021 92.9777L118.235 98.3302L120.317 95.9296L114.102 90.5772Z" fill="#F9A826"/>
    <path d="M125.331 72.697V72.8832C125.327 73.3506 125.313 73.8159 125.291 74.2791C124.886 82.2061 121.455 89.6788 115.701 95.1657C109.946 100.653 102.304 103.738 94.3409 103.79C86.3775 103.842 78.6956 100.856 72.8697 95.4449C67.0437 90.0335 63.5149 82.6062 63.0063 74.6852C62.9639 74.0274 62.9427 73.3647 62.9427 72.6971C62.9315 66.2576 64.9366 59.9751 68.6786 54.7256C68.9778 54.3026 69.289 53.8873 69.6123 53.4798C69.8351 53.1964 70.0643 52.9193 70.2956 52.6444C75.5614 46.4267 83.0626 42.5138 91.1898 41.7451C99.317 40.9764 107.423 43.4132 113.768 48.5328C114.144 48.8352 114.513 49.1482 114.874 49.4676C115.162 49.7235 115.446 49.9851 115.725 50.2523C121.213 55.4851 124.592 62.5386 125.223 70.0829C125.295 70.9458 125.331 71.8172 125.331 72.697Z" fill="#3F3D56"/>
    <path d="M94.1369 107.701C74.7717 107.701 59.0169 91.9982 59.0169 72.697C59.0054 63.8663 62.3542 55.3597 68.3877 48.8929L69.1654 49.6123C63.3142 55.8836 60.0667 64.1331 60.0779 72.697C60.0779 91.4151 75.3567 106.643 94.1369 106.643C98.7 106.659 103.219 105.753 107.421 103.98C111.623 102.207 115.422 99.6047 118.588 96.3291L119.349 97.0652C116.085 100.443 112.168 103.127 107.835 104.955C103.502 106.783 98.8422 107.717 94.1369 107.701Z" fill="#F9A826"/>
    <path d="M99.2298 106.961H90.3171V115.844H99.2298V106.961Z" fill="#F9A826"/>
    <path d="M69.6123 53.48C69.6276 53.4863 69.6419 53.4949 69.6547 53.5053C69.8224 53.6428 69.6123 53.9072 69.6378 54.125C69.6675 54.4042 70.0409 54.4656 70.3232 54.4931C70.6054 54.5227 70.9619 54.749 70.8282 54.9986C70.1195 55.2418 69.4022 55.0028 68.6786 54.7257C64.9366 59.9752 62.9315 66.2577 62.9427 72.6972C62.9427 73.3655 62.9639 74.0282 63.0063 74.6853C63.0657 74.7285 63.1306 74.7633 63.1994 74.789C63.4117 74.8693 63.6578 74.8545 63.853 74.9687C64.008 75.0597 64.1119 75.2204 64.2668 75.305C64.7104 75.5461 65.3258 75.0829 65.7396 75.3706C65.8465 75.4677 65.9478 75.5708 66.043 75.6794C66.425 76.0093 67.0531 75.7873 67.4945 76.0347C67.7789 76.1933 67.9253 76.5106 68.0781 76.7982C68.4579 77.5174 69.0733 78.2238 69.886 78.2809C70.1424 78.2691 70.3992 78.2776 70.6542 78.3063C70.9046 78.3634 71.1508 78.5812 71.1105 78.8329C71.0404 79.2665 71.2548 79.7403 71.1975 80.1738C71.0935 80.967 69.9667 81.3138 69.8712 82.107C69.8709 82.2815 69.861 82.4559 69.8415 82.6294C69.7906 82.8367 69.6335 83.0059 69.5784 83.2131C69.4722 83.6044 69.7545 83.9957 70.0622 84.258C70.372 84.5224 70.7412 84.7508 70.911 85.1188C71.0892 85.5101 71.0023 85.9648 71.0595 86.3899C71.1869 87.3184 71.9911 88.0058 72.8187 88.45C73.0839 88.5604 73.3194 88.7314 73.5063 88.9491C73.7185 89.2558 73.6973 89.6598 73.7694 90.0257C73.9434 90.9203 74.6989 91.6585 74.7201 92.5701C74.7349 93.2194 74.3742 93.8074 74.1577 94.4186C73.9351 95.0594 73.8689 95.7438 73.9646 96.4152C75.1746 97.438 76.4607 98.3678 77.8119 99.1965C77.8854 99.0882 77.9393 98.968 77.9711 98.8412C77.9967 98.7009 77.979 98.5563 77.9203 98.4263C77.8615 98.2964 77.7645 98.1873 77.6421 98.1136C77.8702 98.0277 78.0777 97.8951 78.2512 97.7244C78.3364 97.637 78.3927 97.5257 78.4124 97.4054C78.4322 97.2851 78.4144 97.1617 78.3615 97.0518C78.735 97.0984 79.1785 97.1216 79.4247 96.8361C79.622 96.6077 79.6093 96.265 79.5308 95.9753C79.423 95.6936 79.3517 95.3993 79.3186 95.0996C80.1839 95.1416 81.0512 95.1126 81.9117 95.0129C81.7872 94.5946 81.504 94.241 81.1223 94.0273C81.5128 93.9618 81.8672 93.4964 81.9902 93.1221C82.0967 92.7401 82.1025 92.3373 82.0072 91.9525C81.9777 91.8536 81.9733 91.7489 81.9945 91.6479C82.0573 91.5138 82.1676 91.4075 82.3043 91.3497C82.9494 90.9795 83.5945 90.6101 84.2396 90.2414C84.3547 90.1835 84.4594 90.1071 84.5494 90.0151C84.751 89.7761 84.7213 89.4187 84.6173 89.1247C84.5134 88.8307 84.3478 88.5536 84.3075 88.2448C84.1887 87.3205 85.1818 86.6564 85.5171 85.785C85.6311 85.4372 85.6926 85.0744 85.6996 84.7085C85.7272 84.3151 85.7293 83.8603 85.428 83.6087C85.1372 83.3654 84.6852 83.4204 84.3818 83.1941C84.1038 82.9868 84.0083 82.5871 83.7049 82.42C83.429 82.2677 83.0852 82.365 82.7775 82.2931C82.2385 82.1683 81.899 81.5486 81.3473 81.4915C81.0374 81.4577 80.6852 81.6099 80.4305 81.4302C80.2056 81.2694 80.1971 80.9501 80.1547 80.6793C80.0793 80.2576 79.8762 79.8691 79.5728 79.5658C79.2693 79.2626 78.8799 79.0592 78.457 78.9831C78.1366 78.9323 77.7886 78.9513 77.5148 78.7758C77.239 78.5981 77.1138 78.2661 76.8952 78.0186C76.5472 77.6231 75.9954 77.4814 75.4798 77.3608C74.7795 77.198 74.0799 77.0344 73.3811 76.8701C73.0097 76.7813 72.5301 76.7348 72.3285 77.0605C72.2689 77.1844 72.2274 77.3161 72.2055 77.4518C72.1297 77.6959 71.9785 77.9099 71.7735 78.0633C71.5685 78.2168 71.3201 78.3018 71.0638 78.3063C70.8883 78.0076 70.604 77.7879 70.2701 77.6929C70.052 77.6564 69.8365 77.6055 69.625 77.5406C69.5146 77.4867 69.4164 77.4109 69.3364 77.3178C69.2564 77.2248 69.1963 77.1164 69.1597 76.9994C69.1232 76.8824 69.1109 76.7592 69.1238 76.6373C69.1367 76.5155 69.1744 76.3975 69.2346 76.2906C69.3549 76.076 69.4012 75.8279 69.3663 75.5845C69.3314 75.3411 69.2173 75.1158 69.0415 74.9434C68.685 74.624 68.1693 74.5457 67.6897 74.5775C67.5645 74.3046 67.7746 73.9979 67.9995 73.7991C68.2266 73.6024 68.5003 73.4078 68.5491 73.1117C68.6277 72.6464 68.0314 72.2932 67.5794 72.4307C67.1274 72.5703 66.8388 73.0081 66.6478 73.4396C66.5552 73.6941 66.4289 73.9353 66.2722 74.1566C66.1919 74.266 66.0828 74.3512 65.957 74.4027C65.8312 74.4542 65.6935 74.4701 65.5592 74.4484C65.1857 74.3532 65.0435 73.9112 64.9608 73.539C64.8281 73.0414 64.7611 72.5288 64.7613 72.014C64.7645 71.4942 64.9717 70.9962 65.3385 70.6266C65.956 70.0597 66.9067 70.1147 67.7407 70.2057C67.6513 70.0869 67.6085 69.9398 67.6202 69.7918C67.632 69.6439 67.6974 69.5053 67.8043 69.402C67.9159 69.3032 68.05 69.2331 68.195 69.1977C68.34 69.1623 68.4914 69.1627 68.6362 69.1989C68.8876 69.2508 69.1141 69.3857 69.2791 69.5817C69.5168 69.8694 69.5847 70.2607 69.763 70.5864C69.9434 70.9142 70.3465 71.1934 70.6755 71.0178C70.9619 70.8656 71.0065 70.4722 70.9365 70.157C70.8643 69.844 70.7137 69.5373 70.7391 69.2158C70.7879 68.6046 71.4267 68.2345 71.989 67.9828C72.5514 67.7311 73.1943 67.3905 73.2835 66.7814C73.2876 66.663 73.3105 66.5459 73.3514 66.4346C73.4136 66.3352 73.5006 66.2536 73.6039 66.1977C75.2443 65.1169 76.9143 64.0213 78.7902 63.4312C78.8878 63.3995 78.8984 63.4333 78.9982 63.4101C79.1382 63.3297 79.0448 63.1076 78.9112 63.0188C78.7775 62.9299 78.5992 62.8601 78.5653 62.7036C78.5419 62.5894 78.6098 62.4752 78.6268 62.3589C78.6312 62.2886 78.6183 62.2183 78.5892 62.1542C78.56 62.0901 78.5155 62.0341 78.4596 61.9911C78.4037 61.9481 78.338 61.9194 78.2684 61.9075C78.1988 61.8957 78.1273 61.9011 78.0602 61.9232C77.9095 61.7244 78.2066 61.4938 78.4486 61.4262C79.1729 61.2284 79.9162 61.1079 80.6661 61.0666C80.7527 61.0523 80.8415 61.0672 80.9186 61.1089C80.9738 61.1619 81.0065 61.234 81.01 61.3103C81.0136 61.3866 80.9877 61.4613 80.9377 61.5192C80.8356 61.6322 80.7226 61.735 80.6003 61.8259C80.4786 61.9438 80.3916 62.0927 80.349 62.2564C80.3063 62.4201 80.3096 62.5924 80.3584 62.7544C80.751 62.9532 81.1754 63.1584 81.6104 63.0886C82.0433 63.0188 82.4274 62.5323 82.2237 62.1453C82.0348 61.7836 81.464 61.7011 81.3664 61.3056C81.2518 60.8424 81.9096 60.43 81.7611 59.9773C81.6974 59.7785 81.4979 59.6601 81.3452 59.5184C81.1654 59.3419 81.0431 59.1156 80.9942 58.8689C80.9454 58.6221 80.9723 58.3664 81.0714 58.1352C80.823 58.1784 80.5678 58.1618 80.3271 58.0868C80.0864 58.0117 79.8672 57.8804 79.6878 57.7037C79.3568 57.3716 79.0936 56.845 78.6226 56.8619C78.1918 56.8746 77.8204 57.3759 77.4172 57.2236C77.3175 57.1855 77.2135 57.1094 77.118 57.1538C77.0865 57.174 77.06 57.201 77.0405 57.2329C77.0211 57.2648 77.0091 57.3006 77.0055 57.3378C76.9037 57.8264 77.0798 58.3826 76.8124 58.8056C76.5217 59.2646 75.849 59.328 75.4968 59.7426C75.3058 59.9668 75.2315 60.2692 75.0554 60.5061C74.8792 60.743 74.5079 60.8953 74.2957 60.688C74.3996 60.4757 74.4281 60.2345 74.3764 60.0039C74.3247 59.7733 74.196 59.5671 74.0113 59.419C73.8159 59.2911 73.6048 59.1888 73.3832 59.1144C73.1357 59.0103 72.9002 58.8798 72.6808 58.7253C72.5715 58.6589 72.4826 58.5637 72.424 58.4503C72.3777 58.3077 72.3837 58.1532 72.441 58.0146C72.5484 57.7091 72.7374 57.4386 72.9875 57.2322C73.2377 57.0257 73.5395 56.8911 73.8607 56.8429C74.1408 56.8048 74.4676 56.8175 74.6543 56.6039C74.7519 56.4918 74.8028 56.3205 74.9471 56.276C75.0381 56.2571 75.1327 56.2683 75.2167 56.3078C75.5668 56.4304 75.9148 56.5531 76.2649 56.6758C76.3817 56.7292 76.5107 56.7503 76.6384 56.7371C76.7017 56.729 76.7596 56.6971 76.8002 56.648C76.8408 56.5989 76.8611 56.5362 76.857 56.4727C76.823 56.2993 76.5557 56.2168 76.5811 56.0413C76.5935 55.9839 76.624 55.932 76.6681 55.8932C77.0466 55.492 77.5094 55.1791 78.0233 54.9769C78.5373 54.7747 79.0897 54.6882 79.6411 54.7236C79.7727 54.9415 79.5647 55.1974 79.3886 55.3814C79.2146 55.5675 79.0745 55.8974 79.2867 56.0392C79.3723 56.0839 79.4681 56.1058 79.5647 56.1026C79.8228 56.1371 80.0736 56.2128 80.3075 56.3268C80.6703 56.4833 81.0268 56.6568 81.3749 56.8429C81.3236 56.6161 81.3324 56.38 81.4003 56.1576C81.4387 56.0485 81.5164 55.9574 81.6184 55.9023C81.7204 55.8472 81.8393 55.8319 81.9521 55.8594C82.16 55.9398 82.2661 56.2147 82.4889 56.2401C82.7839 56.2739 82.9006 55.8382 82.7775 55.5675C82.6545 55.2968 82.4083 55.0726 82.3892 54.7744C82.3743 54.5756 82.4507 54.3281 82.2916 54.2075C82.235 54.1702 82.1702 54.147 82.1027 54.1399C80.7701 53.8966 79.4367 53.6527 78.1027 53.4081C77.865 53.3636 77.5233 53.3975 77.5127 53.6365C77.5064 53.7718 77.6273 53.9051 77.5743 54.0278C77.517 54.1589 77.3302 54.1483 77.1944 54.1948C77.0924 54.241 77.0082 54.319 76.9546 54.4171C76.901 54.5151 76.8809 54.6279 76.8973 54.7384C76.9336 54.9583 77.0192 55.1673 77.1477 55.3497C76.8867 55.2418 76.4941 55.2228 76.2331 55.1128C76.1952 54.8115 76.1181 54.5165 76.0039 54.235C75.9974 54.1902 75.9811 54.1474 75.9562 54.1096C75.9313 54.0717 75.8983 54.0398 75.8597 54.016C75.8211 53.9922 75.7777 53.9771 75.7326 53.9719C75.6875 53.9666 75.6417 53.9712 75.5986 53.9855C75.2549 54.0383 74.9111 54.0891 74.5673 54.142C74.481 54.1461 74.3983 54.178 74.3318 54.2329C74.1981 54.3746 74.3296 54.6009 74.3254 54.7955C74.313 54.9043 74.2669 55.0066 74.1935 55.0881C74.1201 55.1695 74.023 55.2262 73.9158 55.2503C73.6999 55.294 73.477 55.2911 73.2622 55.2418C72.7805 55.1678 72.301 55.0937 71.8193 55.0197C72.2444 54.8847 72.6226 54.6324 72.91 54.2921C73.101 54.0679 73.2028 53.6492 72.927 53.5434C72.8455 53.5211 72.7605 53.5147 72.6766 53.5244C72.023 53.5286 71.5073 52.985 70.8962 52.7545C70.704 52.6831 70.5007 52.6458 70.2956 52.6445L69.6123 53.48Z" fill="#F9A826"/>
    <path d="M125.291 74.2793C125.216 74.3795 125.118 74.4598 125.004 74.5132C124.891 74.5667 124.767 74.5917 124.641 74.586C123.977 74.5289 123.697 73.575 123.039 73.4671C122.981 73.4523 122.919 73.4583 122.865 73.4841C122.768 73.5369 122.751 73.6681 122.744 73.7781C122.717 74.3237 122.693 74.8906 122.908 75.3939C123.22 76.13 124.028 76.7476 123.858 77.528C122.946 77.1071 122.471 76.0856 122.256 75.1063C122.04 74.127 122.006 73.0991 121.62 72.1727C121.325 72.5471 120.709 72.2383 120.442 71.8449C120.187 71.4727 120.03 71.0412 119.784 70.6626C119.538 70.2861 119.16 69.9477 118.71 69.9266C118.237 69.9054 117.825 70.229 117.465 70.5357C117.151 70.7667 116.887 71.0589 116.69 71.3944C116.438 71.902 116.503 72.4985 116.491 73.0632C116.478 73.6723 116.348 74.3174 115.93 74.7658C115.512 75.2121 114.742 75.3686 114.282 74.9646C114.059 74.7332 113.9 74.4483 113.821 74.1376C113.32 72.6835 112.904 71.2019 112.573 69.7003C112.497 70.0429 112.193 70.4849 111.905 70.284C111.84 70.2293 111.788 70.1615 111.752 70.0852C111.213 69.1778 110.218 68.6322 109.21 68.3043C108.204 67.9786 107.145 67.8263 106.15 67.4668C105.592 67.2648 105.058 67.0001 104.56 66.6779C104.434 66.8636 104.36 67.0799 104.347 67.304C104.333 67.5281 104.381 67.7517 104.484 67.9511C104.596 68.1463 104.769 68.2991 104.977 68.386C105.185 68.4728 105.416 68.4887 105.634 68.4312C105.855 68.3593 106.042 68.207 106.26 68.1309C106.479 68.0569 106.774 68.0928 106.869 68.3043C106.963 68.5053 106.823 68.7485 106.893 68.96C106.997 69.2794 107.482 69.3047 107.652 69.5966C107.702 69.7122 107.714 69.8407 107.685 69.9632C107.656 70.0858 107.589 70.196 107.493 70.2777C107.298 70.4364 107.082 70.5686 106.852 70.6711C106.139 71.0666 105.632 71.7413 105.008 72.2658C104.384 72.7924 103.504 73.1753 102.761 72.839C102.937 71.9443 101.87 71.2887 101.672 70.3982C101.607 70.1042 101.64 69.7933 101.549 69.5078C101.416 69.0932 101.046 68.8098 100.745 68.4968C100.379 68.1125 100.094 67.6591 99.9059 67.1633C99.7182 66.6675 99.6319 66.1393 99.6521 65.6098C99.6691 65.2418 99.737 64.8674 99.6521 64.5078C99.5693 64.1504 99.2701 63.8035 98.9009 63.8184C98.0584 63.8564 96.9953 63.9199 96.5539 63.2029C96.3947 62.947 96.3268 62.5726 96.556 62.3759C96.6456 62.3193 96.7456 62.281 96.8501 62.2632C96.9547 62.2454 97.0617 62.2485 97.165 62.2723C97.7995 62.3336 98.4319 62.397 99.0664 62.4584C99.5099 62.5007 99.9895 62.5366 100.371 62.3061C100.753 62.0756 100.919 61.4601 100.565 61.1872C100.308 60.9884 99.8452 60.999 99.7688 60.6839C99.7073 60.4195 100 60.1213 99.841 59.8992C99.7285 59.7427 99.4738 59.785 99.3189 59.9034C99.1838 60.0433 99.0368 60.1714 98.8797 60.2862C98.5762 60.4428 98.2155 60.2926 97.8887 60.1911C97.5619 60.0895 97.1247 60.0811 96.9677 60.3835C96.7894 60.7198 97.1226 61.164 96.9486 61.5024C96.7152 61.9487 95.93 61.6949 95.6032 62.0798C95.2297 62.5197 95.8579 63.1796 95.7327 63.7422C95.5715 63.8219 95.3923 63.8585 95.2126 63.8485C95.033 63.8385 94.859 63.7822 94.7077 63.6851C94.5592 63.5844 94.4409 63.4455 94.3654 63.2831C94.2899 63.1207 94.2601 62.9409 94.279 62.7629C94.3088 62.5091 94.4424 62.249 94.3533 62.01C94.2572 61.8254 94.0986 61.6808 93.9056 61.6018C93.2902 61.2613 92.6748 60.9222 92.0594 60.5845C91.8875 60.9017 92.1039 61.293 92.3756 61.532C92.6451 61.7689 92.9846 61.9486 93.1629 62.2617C93.2757 62.4786 93.3012 62.7303 93.2342 62.9654C93.1671 63.2004 93.0126 63.4011 92.8021 63.5265C92.7755 63.5447 92.7452 63.557 92.7133 63.5625C92.6814 63.568 92.6487 63.5665 92.6175 63.5582C92.5881 63.541 92.5624 63.5181 92.542 63.4908C92.5216 63.4636 92.5068 63.4326 92.4986 63.3996C92.174 62.5683 91.6838 61.7498 90.9029 61.3162C90.1198 60.8805 88.9973 60.9715 88.4837 61.7012C88.3628 61.8746 88.28 62.0734 88.1739 62.2574C87.6116 63.2325 86.402 63.6935 85.2731 63.6639C85.1626 63.671 85.0526 63.6452 84.9569 63.5899C84.7744 63.4651 84.7829 63.1986 84.8104 62.9787C84.8508 62.6677 84.889 62.359 84.9293 62.048C84.9303 61.8582 85.0039 61.6759 85.1351 61.5383C85.3452 61.3733 85.6465 61.477 85.9139 61.4728C86.1157 61.4638 86.3098 61.393 86.4697 61.2699C86.6296 61.1469 86.7475 60.9777 86.8073 60.7854C86.8611 60.5913 86.8606 60.3863 86.806 60.1925C86.7514 59.9986 86.6447 59.8233 86.4975 59.6855C86.3765 59.5713 86.2131 59.4275 86.2768 59.2731C86.3027 59.2306 86.3375 59.1942 86.3789 59.1664C86.4203 59.1387 86.4673 59.1202 86.5166 59.1124C86.994 58.9749 87.5012 58.9389 87.9702 58.774C88.4413 58.6111 88.8975 58.2769 89.01 57.7926C89.0439 57.6445 89.0588 57.4648 89.1925 57.3907C89.26 57.3637 89.3319 57.3494 89.4047 57.3484C89.6598 57.312 89.8921 57.1818 90.0558 56.9834C90.2196 56.7849 90.3029 56.5327 90.2896 56.2761C90.5145 56.1196 90.8307 56.2359 91.0493 56.403C91.2657 56.5701 91.4588 56.7901 91.7241 56.862C92.2185 56.9973 92.696 56.5595 93.2095 56.5574C93.426 56.5574 93.6488 56.6336 93.8504 56.5595C94.0562 56.4855 94.1793 56.2825 94.3363 56.1323C94.4955 55.98 94.7714 55.8891 94.9178 56.0519C94.8753 55.7452 94.835 55.4407 94.7926 55.1361C95.0426 55.1989 95.3032 55.2076 95.5568 55.1616C95.8105 55.1156 96.0513 55.0161 96.2632 54.8696C95.7284 54.6898 95.1958 54.5101 94.661 54.3303C94.6049 54.3165 94.553 54.2888 94.5104 54.2499C94.3937 54.1251 94.5104 53.9305 94.6037 53.7888C94.8308 53.4483 94.869 52.8878 94.4955 52.7186C94.2409 52.6023 93.9501 52.7419 93.7061 52.8773C93.3156 53.093 92.9252 53.3108 92.5347 53.5266C92.4987 53.7486 92.7703 53.8756 92.9379 54.0236C93.0401 54.1139 93.1124 54.233 93.1454 54.365C93.1783 54.4971 93.1704 54.636 93.1227 54.7635C93.0749 54.891 92.9895 55.0011 92.8777 55.0793C92.766 55.1576 92.6331 55.2002 92.4965 55.2017C92.5734 55.3017 92.6269 55.4177 92.653 55.541C92.679 55.6644 92.6771 55.792 92.6472 55.9144C92.3862 55.9335 92.1231 55.9525 91.8599 55.9715C91.8162 55.9802 91.7712 55.9802 91.7275 55.9715C91.6838 55.9628 91.6423 55.9456 91.6053 55.9208C91.5204 55.8468 91.5331 55.7156 91.5119 55.6056C91.4769 55.4742 91.4033 55.3562 91.3004 55.2668C91.1975 55.1775 91.0701 55.1209 90.9347 55.1044C90.6644 55.0741 90.3906 55.0993 90.1304 55.1784C90.0173 55.2181 89.8935 55.2151 89.7824 55.17C89.7194 55.1284 89.6717 55.0675 89.6466 54.9965C89.6004 54.8515 89.5926 54.697 89.6238 54.5481C89.655 54.3991 89.7243 54.2607 89.8249 54.1463C90.0286 53.9207 90.2531 53.7147 90.4954 53.5308C91.0445 53.0517 91.4481 52.4289 91.6604 51.733C92.0933 51.5511 92.5411 51.3058 92.9761 51.1239C93.3258 50.9623 93.6923 50.8396 94.069 50.758C94.4235 50.704 94.7826 50.687 95.1406 50.7072C95.6287 50.7157 96.1189 50.7241 96.607 50.7347C97.0426 50.7165 97.4779 50.7789 97.8908 50.9187C98.2919 51.0837 98.6463 51.4411 98.6738 51.8726C98.6822 51.9218 98.6778 51.9723 98.6611 52.0193C98.6444 52.0663 98.6159 52.1082 98.5783 52.1412C98.522 52.1723 98.458 52.1869 98.3937 52.1835C97.9884 52.1962 97.8165 52.2977 97.4112 52.3125C97.668 52.5854 97.9566 52.873 98.3301 52.9217C98.9879 53.0063 99.4611 52.3273 99.7646 51.7372C99.7754 51.8874 99.8447 52.0275 99.9577 52.1274C100.071 52.2274 100.218 52.2794 100.369 52.2723C100.532 52.2445 100.687 52.184 100.826 52.0947C102.131 51.3837 103.593 51.0072 105.08 50.9991C105.066 50.8869 105.093 50.7732 105.158 50.6802C105.223 50.5872 105.32 50.5215 105.43 50.4957C105.734 50.4365 106.006 50.6966 106.152 50.9674C106.296 51.2381 106.388 51.5511 106.621 51.7542C106.852 51.9572 107.3 51.9466 107.391 51.6548C107.48 51.3735 107.185 51.1323 106.941 50.9653C106.695 50.8003 106.438 50.4936 106.604 50.2483C107.852 49.9712 109.11 49.6962 110.39 49.6412C110.607 49.6478 110.824 49.6104 111.026 49.5313C111.127 49.4889 111.21 49.4148 111.264 49.3203C111.318 49.2259 111.338 49.1164 111.323 49.0089C111.044 49.0738 110.752 49.0546 110.484 48.9537C110.215 48.8528 109.983 48.6747 109.817 48.442C111.13 48.3342 112.505 48.239 113.768 48.533L114.874 49.4678C114.664 49.6857 114.383 49.8908 114.536 50.1087C114.587 50.1587 114.648 50.1967 114.715 50.2198C114.782 50.2428 114.854 50.2504 114.925 50.2419C115.192 50.2461 115.459 50.2525 115.725 50.2525C121.213 55.4854 124.592 62.5388 125.223 70.0831C124.777 70.0662 124.368 70.6288 124.425 71.1194C124.493 71.6884 124.905 72.1452 125.2 72.6359C125.248 72.7157 125.292 72.7983 125.331 72.8834L125.291 74.2793Z" fill="#F9A826"/>
    <path d="M0 115.818H162" stroke="#3F3D56" stroke-width="2" stroke-miterlimit="10"/>
    <path d="M66.8345 14.5509C68.3212 14.5509 69.5264 13.3497 69.5264 11.868C69.5264 10.3862 68.3212 9.18497 66.8345 9.18497C65.3478 9.18497 64.1426 10.3862 64.1426 11.868C64.1426 13.3497 65.3478 14.5509 66.8345 14.5509Z" stroke="#3F3D56" stroke-width="2" stroke-miterlimit="10"/>
    <path d="M146.375 65.6451C147.862 65.6451 149.067 64.4439 149.067 62.9621C149.067 61.4803 147.862 60.2791 146.375 60.2791C144.888 60.2791 143.683 61.4803 143.683 62.9621C143.683 64.4439 144.888 65.6451 146.375 65.6451Z" stroke="#3F3D56" stroke-width="2" stroke-miterlimit="10"/>
    <path d="M127.998 38.9163C129.485 38.9163 130.69 37.7151 130.69 36.2333C130.69 34.7515 129.485 33.5503 127.998 33.5503C126.511 33.5503 125.306 34.7515 125.306 36.2333C125.306 37.7151 126.511 38.9163 127.998 38.9163Z" stroke="#3F3D56" stroke-width="2" stroke-miterlimit="10"/>
    <path d="M110.337 61.9095C112.005 61.9095 113.357 60.5615 113.357 58.8986C113.357 57.2357 112.005 55.8877 110.337 55.8877C108.668 55.8877 107.316 57.2357 107.316 58.8986C107.316 60.5615 108.668 61.9095 110.337 61.9095Z" fill="#3F3D56"/>
    <path d="M120.04 53.1899C122.24 53.1899 124.023 51.413 124.023 49.221C124.023 47.029 122.24 45.2521 120.04 45.2521C117.841 45.2521 116.058 47.029 116.058 49.221C116.058 51.413 117.841 53.1899 120.04 53.1899Z" fill="white"/>
    <path d="M124.068 45.106C122.999 44.0668 121.56 43.4934 120.067 43.5118C118.573 43.5302 117.149 44.1391 116.106 45.2043C113.935 47.4226 110.835 58.6253 110.835 58.6253C110.835 58.6253 121.995 55.2592 124.166 53.0409C125.209 51.9757 125.784 50.5412 125.766 49.0531C125.747 47.5651 125.136 46.1452 124.068 45.106ZM118.219 51.0819C117.849 50.7228 117.595 50.2626 117.488 49.7594C117.381 49.2563 117.426 48.7329 117.618 48.2553C117.809 47.7778 118.139 47.3675 118.564 47.0765C118.99 46.7855 119.492 46.6268 120.008 46.6204C120.524 46.6141 121.03 46.7603 121.463 47.0408C121.895 47.3212 122.235 47.7231 122.438 48.1958C122.642 48.6685 122.7 49.1906 122.605 49.6963C122.511 50.2019 122.268 50.6683 121.908 51.0364C121.425 51.5301 120.765 51.8122 120.073 51.8207C119.381 51.8293 118.714 51.5635 118.219 51.0819Z" fill="#57B894"/>
  </g>
  <defs>
    <clipPath id="clip0_1_20">
      <rect width="162" height="116" fill="white"/>
    </clipPath>
  </defs>
</svg>